<?xml version="1.0" encoding="utf-8"?>
<!-- Svg Vector Icons : http://www.onlinewebfonts.com/icon -->
<!DOCTYPE svg PUBLIC "-//W3C//DTD SVG 1.1//EN" "http://www.w3.org/Graphics/SVG/1.1/DTD/svg11.dtd">
<svg version="1.1" xmlns="http://www.w3.org/2000/svg" xmlns:xlink="http://www.w3.org/1999/xlink" x="0px" y="0px" viewBox="0 0 256 256" enable-background="new 0 0 256 256" xml:space="preserve">
<metadata> Svg Vector Icons : http://www.onlinewebfonts.com/icon </metadata>
<g><g><path fill="#000000" d="M151.8,78.8H146v15.1h5.5c2.6,0,4.7-0.8,6.3-2.3c1.6-1.5,2.4-3.4,2.4-5.7C160.3,81.2,157.4,78.8,151.8,78.8z"/><path fill="#000000" d="M128,10c-47.8,0-86.5,38.7-86.5,86.5c0,47.8,38.7,86.6,86.5,86.6c47.8,0,86.5-38.7,86.5-86.6C214.5,48.7,175.8,10,128,10z M122.5,122.8h-11.2v-21.7H89v21.7H77.8V70.3H89v21.2h22.4V70.3h11.2V122.8z M165.3,122.8l-8.3-13.7c-1.7-2.8-3.1-4.6-4.2-5.5c-1.1-0.8-2.2-1.2-3.5-1.2H146v20.4h-11.2V70.3h18.4c12.5,0,18.8,4.7,18.8,14.3c0,3.6-1,6.6-3.1,9.2c-2.1,2.6-5,4.4-8.6,5.4v0.1c2.4,0.8,5.1,3.5,8,8l9.9,15.6H165.3z"/><path fill="#000000" d="M203.2,157.9c-16,19.6-39.5,32.8-66.1,35.3l0.6,1.3l23.4,51.5l23.4-39h46.8L203.2,157.9z"/><path fill="#000000" d="M52.7,157.9l-28,49.1h46.8l23.4,39l23.4-51.5l0.6-1.3C92.2,190.7,68.7,177.5,52.7,157.9z"/></g></g>
</svg>